# Blender 4.2.0
# www.blender.org
o Torus.001
v 1.250000 0.000000 0.000000
v 1.216506 0.125000 0.000000
v 1.125000 0.216506 0.000000
v 1.000000 0.250000 0.000000
v 0.875000 0.216506 0.000000
v 0.783494 0.125000 0.000000
v 0.750000 0.000000 0.000000
v 0.783494 -0.125000 0.000000
v 0.875000 -0.216506 0.000000
v 1.000000 -0.250000 0.000000
v 1.125000 -0.216506 0.000000
v 1.216506 -0.125000 0.000000
v 0.386271 0.000000 -1.188821
v 0.375921 0.125000 -1.156966
v 0.347644 0.216506 -1.069939
v 0.309017 0.250000 -0.951056
v 0.270390 0.216506 -0.832174
v 0.242113 0.125000 -0.745147
v 0.231763 0.000000 -0.713292
v 0.242113 -0.125000 -0.745147
v 0.270390 -0.216506 -0.832174
v 0.309017 -0.250000 -0.951056
v 0.347644 -0.216506 -1.069939
v 0.375921 -0.125000 -1.156966
v -1.011271 0.000000 -0.734731
v -0.984175 0.125000 -0.715044
v -0.910144 0.216506 -0.661258
v -0.809017 0.250000 -0.587785
v -0.707890 0.216506 -0.514312
v -0.633860 0.125000 -0.460526
v -0.606763 0.000000 -0.440839
v -0.633860 -0.125000 -0.460526
v -0.707890 -0.216506 -0.514312
v -0.809017 -0.250000 -0.587785
v -0.910144 -0.216506 -0.661258
v -0.984175 -0.125000 -0.715044
v -1.011271 0.000000 0.734731
v -0.984175 0.125000 0.715044
v -0.910144 0.216506 0.661258
v -0.809017 0.250000 0.587785
v -0.707890 0.216506 0.514312
v -0.633860 0.125000 0.460526
v -0.606763 0.000000 0.440839
v -0.633860 -0.125000 0.460526
v -0.707890 -0.216506 0.514312
v -0.809017 -0.250000 0.587785
v -0.910144 -0.216506 0.661258
v -0.984175 -0.125000 0.715044
v 0.386271 0.000000 1.188821
v 0.375921 0.125000 1.156966
v 0.347644 0.216506 1.069939
v 0.309017 0.250000 0.951056
v 0.270390 0.216506 0.832174
v 0.242113 0.125000 0.745147
v 0.231763 0.000000 0.713292
v 0.242113 -0.125000 0.745147
v 0.270390 -0.216506 0.832174
v 0.309017 -0.250000 0.951056
v 0.347644 -0.216506 1.069939
v 0.375921 -0.125000 1.156966
vn 0.7907 0.2119 -0.5744
vn 0.6290 0.6290 -0.4570
vn 0.2544 0.9493 -0.1848
vn -0.2544 0.9493 0.1848
vn -0.6290 0.6290 0.4570
vn -0.7907 0.2119 0.5744
vn -0.7907 -0.2119 0.5744
vn -0.6290 -0.6290 0.4570
vn -0.2544 -0.9493 0.1848
vn 0.2544 -0.9493 -0.1848
vn 0.6290 -0.6290 -0.4570
vn 0.7907 -0.2119 -0.5744
vn -0.3020 0.2119 -0.9295
vn -0.2402 0.6290 -0.7394
vn -0.0972 0.9493 -0.2990
vn 0.0972 0.9493 0.2990
vn 0.2402 0.6290 0.7394
vn 0.3020 0.2119 0.9295
vn 0.3020 -0.2119 0.9295
vn 0.2402 -0.6290 0.7394
vn 0.0972 -0.9493 0.2990
vn -0.0972 -0.9493 -0.2990
vn -0.2402 -0.6290 -0.7394
vn -0.3020 -0.2119 -0.9295
vn -0.9773 0.2119 -0.0000
vn -0.7774 0.6290 -0.0000
vn -0.3144 0.9493 -0.0000
vn 0.3144 0.9493 -0.0000
vn 0.7774 0.6290 -0.0000
vn 0.9773 0.2119 -0.0000
vn 0.9773 -0.2119 -0.0000
vn 0.7774 -0.6290 -0.0000
vn 0.3144 -0.9493 -0.0000
vn -0.3144 -0.9493 -0.0000
vn -0.7774 -0.6290 -0.0000
vn -0.9773 -0.2119 -0.0000
vn -0.3020 0.2119 0.9295
vn -0.2402 0.6290 0.7394
vn -0.0972 0.9493 0.2990
vn 0.0972 0.9493 -0.2990
vn 0.2402 0.6290 -0.7394
vn 0.3020 0.2119 -0.9295
vn 0.3020 -0.2119 -0.9295
vn 0.2402 -0.6290 -0.7394
vn 0.0972 -0.9493 -0.2990
vn -0.0972 -0.9493 0.2990
vn -0.2402 -0.6290 0.7394
vn -0.3020 -0.2119 0.9295
vn 0.7907 0.2119 0.5744
vn 0.6290 0.6290 0.4570
vn 0.2544 0.9493 0.1848
vn -0.2544 0.9493 -0.1848
vn -0.6290 0.6290 -0.4570
vn -0.7907 0.2119 -0.5744
vn -0.7907 -0.2119 -0.5744
vn -0.6290 -0.6290 -0.4570
vn -0.2544 -0.9493 -0.1848
vn 0.2544 -0.9493 0.1848
vn 0.6290 -0.6290 0.4570
vn 0.7907 -0.2119 0.5744
vt 0.600000 0.500000
vt 0.800000 0.500000
vt 0.800000 0.583333
vt 0.600000 0.583333
vt 0.800000 0.666667
vt 0.600000 0.666667
vt 0.800000 0.750000
vt 0.600000 0.750000
vt 0.800000 0.833333
vt 0.600000 0.833333
vt 0.800000 0.916667
vt 0.600000 0.916667
vt 0.800000 1.000000
vt 0.600000 1.000000
vt 0.600000 0.000000
vt 0.800000 0.000000
vt 0.800000 0.083333
vt 0.600000 0.083333
vt 0.800000 0.166667
vt 0.600000 0.166667
vt 0.800000 0.250000
vt 0.600000 0.250000
vt 0.800000 0.333333
vt 0.600000 0.333333
vt 0.800000 0.416667
vt 0.600000 0.416667
vt 1.000000 0.500000
vt 1.000000 0.583333
vt 1.000000 0.666667
vt 1.000000 0.750000
vt 1.000000 0.833333
vt 1.000000 0.916667
vt 1.000000 1.000000
vt 1.000000 0.000000
vt 1.000000 0.083333
vt 1.000000 0.166667
vt 1.000000 0.250000
vt 1.000000 0.333333
vt 1.000000 0.416667
vt 0.000000 0.500000
vt 0.200000 0.500000
vt 0.200000 0.583333
vt 0.000000 0.583333
vt 0.200000 0.666667
vt 0.000000 0.666667
vt 0.200000 0.750000
vt 0.000000 0.750000
vt 0.200000 0.833333
vt 0.000000 0.833333
vt 0.200000 0.916667
vt 0.000000 0.916667
vt 0.200000 1.000000
vt 0.000000 1.000000
vt 0.000000 0.000000
vt 0.200000 0.000000
vt 0.200000 0.083333
vt 0.000000 0.083333
vt 0.200000 0.166667
vt 0.000000 0.166667
vt 0.200000 0.250000
vt 0.000000 0.250000
vt 0.200000 0.333333
vt 0.000000 0.333333
vt 0.200000 0.416667
vt 0.000000 0.416667
vt 0.400000 0.500000
vt 0.400000 0.583333
vt 0.400000 0.666667
vt 0.400000 0.750000
vt 0.400000 0.833333
vt 0.400000 0.916667
vt 0.400000 1.000000
vt 0.400000 0.000000
vt 0.400000 0.083333
vt 0.400000 0.166667
vt 0.400000 0.250000
vt 0.400000 0.333333
vt 0.400000 0.416667
s 0
f 1/1/1 13/2/1 14/3/1 2/4/1
f 2/4/2 14/3/2 15/5/2 3/6/2
f 3/6/3 15/5/3 16/7/3 4/8/3
f 4/8/4 16/7/4 17/9/4 5/10/4
f 5/10/5 17/9/5 18/11/5 6/12/5
f 6/12/6 18/11/6 19/13/6 7/14/6
f 7/15/7 19/16/7 20/17/7 8/18/7
f 8/18/8 20/17/8 21/19/8 9/20/8
f 9/20/9 21/19/9 22/21/9 10/22/9
f 10/22/10 22/21/10 23/23/10 11/24/10
f 11/24/11 23/23/11 24/25/11 12/26/11
f 12/26/12 24/25/12 13/2/12 1/1/12
f 13/2/13 25/27/13 26/28/13 14/3/13
f 14/3/14 26/28/14 27/29/14 15/5/14
f 15/5/15 27/29/15 28/30/15 16/7/15
f 16/7/16 28/30/16 29/31/16 17/9/16
f 17/9/17 29/31/17 30/32/17 18/11/17
f 18/11/18 30/32/18 31/33/18 19/13/18
f 19/16/19 31/34/19 32/35/19 20/17/19
f 20/17/20 32/35/20 33/36/20 21/19/20
f 21/19/21 33/36/21 34/37/21 22/21/21
f 22/21/22 34/37/22 35/38/22 23/23/22
f 23/23/23 35/38/23 36/39/23 24/25/23
f 24/25/24 36/39/24 25/27/24 13/2/24
f 25/40/25 37/41/25 38/42/25 26/43/25
f 26/43/26 38/42/26 39/44/26 27/45/26
f 27/45/27 39/44/27 40/46/27 28/47/27
f 28/47/28 40/46/28 41/48/28 29/49/28
f 29/49/29 41/48/29 42/50/29 30/51/29
f 30/51/30 42/50/30 43/52/30 31/53/30
f 31/54/31 43/55/31 44/56/31 32/57/31
f 32/57/32 44/56/32 45/58/32 33/59/32
f 33/59/33 45/58/33 46/60/33 34/61/33
f 34/61/34 46/60/34 47/62/34 35/63/34
f 35/63/35 47/62/35 48/64/35 36/65/35
f 36/65/36 48/64/36 37/41/36 25/40/36
f 37/41/37 49/66/37 50/67/37 38/42/37
f 38/42/38 50/67/38 51/68/38 39/44/38
f 39/44/39 51/68/39 52/69/39 40/46/39
f 40/46/40 52/69/40 53/70/40 41/48/40
f 41/48/41 53/70/41 54/71/41 42/50/41
f 42/50/42 54/71/42 55/72/42 43/52/42
f 43/55/43 55/73/43 56/74/43 44/56/43
f 44/56/44 56/74/44 57/75/44 45/58/44
f 45/58/45 57/75/45 58/76/45 46/60/45
f 46/60/46 58/76/46 59/77/46 47/62/46
f 47/62/47 59/77/47 60/78/47 48/64/47
f 48/64/48 60/78/48 49/66/48 37/41/48
f 49/66/49 1/1/49 2/4/49 50/67/49
f 50/67/50 2/4/50 3/6/50 51/68/50
f 51/68/51 3/6/51 4/8/51 52/69/51
f 52/69/52 4/8/52 5/10/52 53/70/52
f 53/70/53 5/10/53 6/12/53 54/71/53
f 54/71/54 6/12/54 7/14/54 55/72/54
f 55/73/55 7/15/55 8/18/55 56/74/55
f 56/74/56 8/18/56 9/20/56 57/75/56
f 57/75/57 9/20/57 10/22/57 58/76/57
f 58/76/58 10/22/58 11/24/58 59/77/58
f 59/77/59 11/24/59 12/26/59 60/78/59
f 60/78/60 12/26/60 1/1/60 49/66/60
