# Blender 4.2.0
# www.blender.org
o Torus.001
v 1.250000 0.000000 0.000000
v 1.216506 0.125000 0.000000
v 1.125000 0.216506 0.000000
v 1.000000 0.250000 0.000000
v 0.875000 0.216506 0.000000
v 0.783494 0.125000 0.000000
v 0.750000 0.000000 0.000000
v 0.783494 -0.125000 0.000000
v 0.875000 -0.216506 0.000000
v 1.000000 -0.250000 0.000000
v 1.125000 -0.216506 0.000000
v 1.216506 -0.125000 0.000000
v 0.000000 0.000000 -1.250000
v 0.000000 0.125000 -1.216506
v 0.000000 0.216506 -1.125000
v 0.000000 0.250000 -1.000000
v 0.000000 0.216506 -0.875000
v 0.000000 0.125000 -0.783494
v 0.000000 0.000000 -0.750000
v 0.000000 -0.125000 -0.783494
v 0.000000 -0.216506 -0.875000
v 0.000000 -0.250000 -1.000000
v 0.000000 -0.216506 -1.125000
v 0.000000 -0.125000 -1.216506
v -1.250000 0.000000 -0.000000
v -1.216506 0.125000 -0.000000
v -1.125000 0.216506 -0.000000
v -1.000000 0.250000 -0.000000
v -0.875000 0.216506 -0.000000
v -0.783494 0.125000 -0.000000
v -0.750000 0.000000 -0.000000
v -0.783494 -0.125000 -0.000000
v -0.875000 -0.216506 -0.000000
v -1.000000 -0.250000 -0.000000
v -1.125000 -0.216506 -0.000000
v -1.216506 -0.125000 -0.000000
v 0.000000 0.000000 1.250000
v 0.000000 0.125000 1.216506
v 0.000000 0.216506 1.125000
v 0.000000 0.250000 1.000000
v 0.000000 0.216506 0.875000
v 0.000000 0.125000 0.783494
v 0.000000 0.000000 0.750000
v 0.000000 -0.125000 0.783494
v 0.000000 -0.216506 0.875000
v 0.000000 -0.250000 1.000000
v 0.000000 -0.216506 1.125000
v 0.000000 -0.125000 1.216506
vn 0.6947 0.1862 -0.6947
vn 0.5774 0.5774 -0.5774
vn 0.2506 0.9351 -0.2506
vn -0.2506 0.9351 0.2506
vn -0.5774 0.5774 0.5774
vn -0.6947 0.1862 0.6947
vn -0.6947 -0.1862 0.6947
vn -0.5774 -0.5774 0.5774
vn -0.2506 -0.9351 0.2506
vn 0.2506 -0.9351 -0.2506
vn 0.5774 -0.5774 -0.5774
vn 0.6947 -0.1862 -0.6947
vn -0.6947 0.1862 -0.6947
vn -0.5774 0.5774 -0.5774
vn -0.2506 0.9351 -0.2506
vn 0.2506 0.9351 0.2506
vn 0.5774 0.5774 0.5774
vn 0.6947 0.1862 0.6947
vn 0.6947 -0.1862 0.6947
vn 0.5774 -0.5774 0.5774
vn 0.2506 -0.9351 0.2506
vn -0.2506 -0.9351 -0.2506
vn -0.5774 -0.5774 -0.5774
vn -0.6947 -0.1862 -0.6947
vt 0.500000 0.500000
vt 0.750000 0.500000
vt 0.750000 0.583333
vt 0.500000 0.583333
vt 0.750000 0.666667
vt 0.500000 0.666667
vt 0.750000 0.750000
vt 0.500000 0.750000
vt 0.750000 0.833333
vt 0.500000 0.833333
vt 0.750000 0.916667
vt 0.500000 0.916667
vt 0.750000 1.000000
vt 0.500000 1.000000
vt 0.500000 0.000000
vt 0.750000 0.000000
vt 0.750000 0.083333
vt 0.500000 0.083333
vt 0.750000 0.166667
vt 0.500000 0.166667
vt 0.750000 0.250000
vt 0.500000 0.250000
vt 0.750000 0.333333
vt 0.500000 0.333333
vt 0.750000 0.416667
vt 0.500000 0.416667
vt 1.000000 0.500000
vt 1.000000 0.583333
vt 1.000000 0.666667
vt 1.000000 0.750000
vt 1.000000 0.833333
vt 1.000000 0.916667
vt 1.000000 1.000000
vt 1.000000 0.000000
vt 1.000000 0.083333
vt 1.000000 0.166667
vt 1.000000 0.250000
vt 1.000000 0.333333
vt 1.000000 0.416667
vt 0.000000 0.500000
vt 0.250000 0.500000
vt 0.250000 0.583333
vt 0.000000 0.583333
vt 0.250000 0.666667
vt 0.000000 0.666667
vt 0.250000 0.750000
vt 0.000000 0.750000
vt 0.250000 0.833333
vt 0.000000 0.833333
vt 0.250000 0.916667
vt 0.000000 0.916667
vt 0.250000 1.000000
vt 0.000000 1.000000
vt 0.000000 0.000000
vt 0.250000 0.000000
vt 0.250000 0.083333
vt 0.000000 0.083333
vt 0.250000 0.166667
vt 0.000000 0.166667
vt 0.250000 0.250000
vt 0.000000 0.250000
vt 0.250000 0.333333
vt 0.000000 0.333333
vt 0.250000 0.416667
vt 0.000000 0.416667
s 0
f 1/1/1 13/2/1 14/3/1 2/4/1
f 2/4/2 14/3/2 15/5/2 3/6/2
f 3/6/3 15/5/3 16/7/3 4/8/3
f 4/8/4 16/7/4 17/9/4 5/10/4
f 5/10/5 17/9/5 18/11/5 6/12/5
f 6/12/6 18/11/6 19/13/6 7/14/6
f 7/15/7 19/16/7 20/17/7 8/18/7
f 8/18/8 20/17/8 21/19/8 9/20/8
f 9/20/9 21/19/9 22/21/9 10/22/9
f 10/22/10 22/21/10 23/23/10 11/24/10
f 11/24/11 23/23/11 24/25/11 12/26/11
f 12/26/12 24/25/12 13/2/12 1/1/12
f 13/2/13 25/27/13 26/28/13 14/3/13
f 14/3/14 26/28/14 27/29/14 15/5/14
f 15/5/15 27/29/15 28/30/15 16/7/15
f 16/7/16 28/30/16 29/31/16 17/9/16
f 17/9/17 29/31/17 30/32/17 18/11/17
f 18/11/18 30/32/18 31/33/18 19/13/18
f 19/16/19 31/34/19 32/35/19 20/17/19
f 20/17/20 32/35/20 33/36/20 21/19/20
f 21/19/21 33/36/21 34/37/21 22/21/21
f 22/21/22 34/37/22 35/38/22 23/23/22
f 23/23/23 35/38/23 36/39/23 24/25/23
f 24/25/24 36/39/24 25/27/24 13/2/24
f 25/40/6 37/41/6 38/42/6 26/43/6
f 26/43/5 38/42/5 39/44/5 27/45/5
f 27/45/4 39/44/4 40/46/4 28/47/4
f 28/47/3 40/46/3 41/48/3 29/49/3
f 29/49/2 41/48/2 42/50/2 30/51/2
f 30/51/1 42/50/1 43/52/1 31/53/1
f 31/54/12 43/55/12 44/56/12 32/57/12
f 32/57/11 44/56/11 45/58/11 33/59/11
f 33/59/10 45/58/10 46/60/10 34/61/10
f 34/61/9 46/60/9 47/62/9 35/63/9
f 35/63/8 47/62/8 48/64/8 36/65/8
f 36/65/7 48/64/7 37/41/7 25/40/7
f 37/41/18 1/1/18 2/4/18 38/42/18
f 38/42/17 2/4/17 3/6/17 39/44/17
f 39/44/16 3/6/16 4/8/16 40/46/16
f 40/46/15 4/8/15 5/10/15 41/48/15
f 41/48/14 5/10/14 6/12/14 42/50/14
f 42/50/13 6/12/13 7/14/13 43/52/13
f 43/55/24 7/15/24 8/18/24 44/56/24
f 44/56/23 8/18/23 9/20/23 45/58/23
f 45/58/22 9/20/22 10/22/22 46/60/22
f 46/60/21 10/22/21 11/24/21 47/62/21
f 47/62/20 11/24/20 12/26/20 48/64/20
f 48/64/19 12/26/19 1/1/19 37/41/19
